#!OML:ASF I:\Actors\actors\Patient Classification 2\Patient 1\Session 1\actor1.ASF
:FULLY-SPECIFIED
:DEGREES
355
root -0.932781 18.8589 5.02324 7.92199 0.689188 -2.09711
lowerback 25.368 -0.135407 1.03378
upperback 6.349 0.232896 1.65891
thorax -7.06021 0.101224 1.15508
lowerneck -21.7022 -2.08345 -1.88196
upperneck 15.5818 -2.48306 1.12313
head 8.44442 -1.16223 0.35436
rclavicle -4.96962e-016 5.56597e-015
rhumerus -54.8454 53.084 -127.724
rradius 116.614
rwrist -8.66115
rhand 0.265164 -25.1243
rfingers 7.12502
rthumb 25.8443 -53.3883
lclavicle -4.96962e-016 5.56597e-015
lhumerus -10.1796 -60.0328 109.32
lradius 135.104
lwrist 15.1106
lhand -23.5092 -54.9423
lfingers 7.12502
lthumb 2.95135 -24.983
rfemur -2.73768 0.243449 17.2218
rtibia 5.56597e-015
rfoot -15.4559 -15.1483
rtoes -8.39724
lfemur -17.8699 -2.37558 -10.4161
ltibia 24.3508
lfoot -15.4785 8.94686
ltoes -57.6441
356
root -0.896023 18.8617 5.01808 7.98123 0.764054 -2.11615
lowerback 25.6022 -0.0837247 0.992873
upperback 6.34875 0.292794 1.64522
thorax -7.17907 0.130273 1.14651
lowerneck -21.8038 -2.13156 -1.95812
upperneck 15.6984 -2.54723 1.23494
head 8.50516 -1.18409 0.394717
rclavicle 4.07509e-015 -6.36111e-015
rhumerus -54.8454 53.084 -127.724
rradius 116.614
rwrist -8.66115
rhand 0.265164 -25.1243
rfingers 7.12502
rthumb 25.8443 -53.3883
lclavicle 4.07509e-015 -6.36111e-015
lhumerus -10.1796 -60.0328 109.32
lradius 135.104
lwrist 15.1106
lhand -23.5092 -54.9423
lfingers 7.12502
lthumb 2.95135 -24.983
rfemur -2.8009 0.156997 17.1164
rtibia -1.51076e-014
rfoot -15.4883 -15.0949
rtoes -7.87639
lfemur -18.0473 -2.37203 -10.5267
ltibia 24.4976
lfoot -15.5443 8.87928
ltoes -57.5575
357
root -0.85959 18.8635 5.01486 8.05947 0.789414 -2.15091
lowerback 25.5397 0.0392937 0.759939
upperback 6.52395 0.39848 1.77735
thorax -6.95759 0.183255 1.39169
lowerneck -21.9445 -2.17661 -2.13604
upperneck 15.6895 -2.56164 1.29277
head 8.52959 -1.19484 0.440035
rclavicle -1.78906e-015 -7.35503e-015
rhumerus -54.8454 53.084 -127.724
rradius 116.614
rwrist -8.66115
rhand 0.265164 -25.1243
rfingers 7.12502
rthumb 25.8443 -53.3883
lclavicle -1.78906e-015 -7.35503e-015
lhumerus -10.1796 -60.0328 109.32
lradius 135.104
lwrist 15.1106
lhand -23.5092 -54.9423
lfingers 7.12502
lthumb 2.95135 -24.983
rfemur -2.88733 0.120705 17.0222
rtibia 8.74653e-015
rfoot -15.5099 -15.0468
rtoes -7.50335
lfemur -18.1883 -2.32125 -10.6237
ltibia 24.5763
lfoot -15.6104 8.82376
ltoes -57.4866
358
root -0.823461 18.8653 5.01374 8.17137 0.768477 -2.19759
lowerback 25.5728 0.163657 0.754564
upperback 6.5864 0.552162 1.7386
thorax -6.90771 0.256513 1.3049
lowerneck -21.9586 -2.20342 -2.13906
upperneck 15.6995 -2.62671 1.43556
head 8.53873 -1.20971 0.480083
rclavicle -4.96962e-016 1.59028e-015
rhumerus -54.8454 53.084 -127.724
rradius 116.614
rwrist -8.66115
rhand 0.265164 -25.1243
rfingers 7.12502
rthumb 25.8443 -53.3883
lclavicle -4.96962e-016 1.59028e-015
lhumerus -10.1796 -60.0328 109.32
lradius 135.104
lwrist 15.1106
lhand -23.5092 -54.9423
lfingers 7.12502
lthumb 2.95135 -24.983
rfemur -3.00449 0.130112 16.9372
rtibia 7.95139e-016
rfoot -15.516 -15.0241
rtoes -7.37786
lfemur -18.3357 -2.16258 -10.7149
ltibia 24.6121
lfoot -15.6376 8.71943
ltoes -57.411
359
root -0.785362 18.868 5.01143 8.27441 0.757248 -2.20888
lowerback 25.5917 0.281797 0.787673
upperback 6.66204 0.703016 1.65317
thorax -6.83467 0.328179 1.14563
lowerneck -21.9001 -2.20329 -2.01244
upperneck 15.6154 -2.67914 1.49712
head 8.50018 -1.22025 0.474163
rclavicle -8.94531e-016 8.15017e-015
rhumerus -54.8454 53.084 -127.724
rradius 116.614
rwrist -8.66115
rhand 0.265164 -25.1243
rfingers 7.12502
rthumb 25.8443 -53.3883
lclavicle -8.94531e-016 8.15017e-015
lhumerus -15.6038 -60.2282 114.4
lradius 135.584
lwrist 14.5518
lhand -23.491 -54.588
lfingers 7.12502
lthumb 2.96894 -24.629
rfemur -3.10713 0.124088 16.8091
rtibia 8.74653e-015
rfoot -15.5353 -14.9995
rtoes -7.25126
lfemur -18.4813 -2.0573 -10.8479
ltibia 24.6423
lfoot -15.6332 8.67163
ltoes -57.3707
360
root -0.744974 18.8709 5.00761 8.36276 0.779815 -2.19702
lowerback 25.5508 0.387525 0.578092
upperback 6.7814 0.790934 1.74715
thorax -6.6877 0.371881 1.34213
lowerneck -21.8182 -2.15879 -1.95043
upperneck 15.5119 -2.60397 1.33171
head 8.44623 -1.2 0.419176
rclavicle -2.38542e-015 -1.15295e-014
rhumerus -54.8454 53.084 -127.724
rradius 116.614
rwrist -8.66115
rhand 0.265164 -25.1243
rfingers 7.12502
rthumb 25.8443 -53.3883
lclavicle -2.38542e-015 -1.15295e-014
lhumerus -15.6524 -60.0875 114.519
lradius 135.553
lwrist 14.4977
lhand -23.2243 -54.794
lfingers 7.12502
lthumb 3.22648 -24.8386
rfemur -3.19058 0.0811529 16.6573
rtibia 1.59028e-014
rfoot -15.5579 -14.9827
rtoes -7.30824
lfemur -18.627 -2.06312 -10.999
ltibia 24.6843
lfoot -15.6537 8.67577
ltoes -57.309
361
root -0.702971 18.8715 5.00451 8.42926 0.767183 -2.20973
lowerback 25.5092 0.466462 0.436348
upperback 6.91315 0.859232 1.8179
thorax -6.52579 0.405038 1.48031
lowerneck -21.7356 -2.09357 -1.84919
upperneck 15.4447 -2.50967 1.14767
head 8.40369 -1.17012 0.354041
rclavicle -3.37934e-015 4.37326e-015
rhumerus -54.8454 53.084 -127.724
rradius 116.614
rwrist -8.66115
rhand 0.265164 -25.1243
rfingers 7.12502
rthumb 25.8443 -53.3883
lclavicle -3.37934e-015 4.37326e-015
lhumerus -15.5255 -59.7029 114.443
lradius 135.879
lwrist 13.5154
lhand -23.2792 -53.1444
lfingers 7.12502
lthumb 3.17344 -23.1882
rfemur -3.25289 0.0774139 16.5247
rtibia -7.95139e-015
rfoot -15.5816 -14.9689
rtoes -7.51332
lfemur -18.7527 -1.97045 -11.1373
ltibia 24.757
lfoot -15.7161 8.57286
ltoes -57.176
362
root -0.661492 18.8706 5.0009 8.46587 0.731273 -2.22051
lowerback 25.5725 0.569914 0.346163
upperback 7.00688 0.969576 1.83839
thorax -6.45815 0.457925 1.52103
lowerneck -21.6537 -2.06802 -1.7927
upperneck 15.4448 -2.49342 1.14514
head 8.3888 -1.15966 0.346911
rclavicle 4.57205e-015 0
rhumerus -54.8454 53.084 -127.724
rradius 116.614
rwrist -8.66115
rhand 0.265164 -25.1243
rfingers 7.12502
rthumb 25.8443 -53.3883
lclavicle 4.57205e-015 0
lhumerus -15.6158 -59.614 114.485
lradius 135.863
lwrist 13.1731
lhand -23.2884 -52.6482
lfingers 7.12502
lthumb 3.16462 -22.692
rfemur -3.29077 0.0977113 16.3843
rtibia -1.82882e-014
rfoot -15.5883 -14.9622
rtoes -7.79883
lfemur -18.8604 -1.71516 -11.2986
ltibia 24.8709
lfoot -15.7337 8.33704
ltoes -57.1178
363
root -0.618139 18.8696 4.99437 8.55938 0.822179 -2.18828
lowerback 25.5821 0.624597 0.247106
upperback 7.09595 1.0178 1.887
thorax -6.36819 0.48124 1.61663
lowerneck -21.6044 -2.08678 -1.97456
upperneck 15.4466 -2.51222 1.3826
head 8.38721 -1.15397 0.454568
rclavicle 1.59028e-015 3.18055e-015
rhumerus -54.8454 53.084 -127.724
rradius 116.614
rwrist -8.66115
rhand 0.265164 -25.1243
rfingers 7.12502
rthumb 25.8443 -53.3883
lclavicle 1.59028e-015 3.18055e-015
lhumerus -15.7114 -59.8633 114.547
lradius 135.825
lwrist 13.6378
lhand -23.5415 -53.8093
lfingers 7.12502
lthumb 2.92018 -23.8496
rfemur -3.39393 -0.0184922 16.2093
rtibia -2.38542e-015
rfoot -15.5869 -14.9788
rtoes -8.09697
lfemur -19.0855 -1.5937 -11.4918
ltibia 25.0171
lfoot -15.7277 8.10815
ltoes -57.0752
